<?xml version="1.0" encoding="utf-8"?>
<!-- Generator: Adobe Illustrator 28.4.1, SVG Export Plug-In . SVG Version: 6.00 Build 0)  -->
<svg version="1.0" id="katman_1" xmlns="http://www.w3.org/2000/svg" xmlns:xlink="http://www.w3.org/1999/xlink" x="0px" y="0px"
	 viewBox="0 0 841.89 595.28" style="enable-background:new 0 0 841.89 595.28;" xml:space="preserve">
<style type="text/css">
	.st0{fill:#091A23;}
	.st1{fill:#32C766;}
</style>
<path class="st0" d="M119.23,258.29h-16.68c-0.31,0-0.6,0.13-0.82,0.35c-0.22,0.22-0.34,0.52-0.34,0.83v27.46H83.53v-27.46
	c0-0.31-0.13-0.61-0.34-0.83s-0.51-0.34-0.82-0.35H65.69c-0.31,0-0.6,0.13-0.82,0.35s-0.34,0.52-0.34,0.83v74.48
	c0,0.31,0.13,0.61,0.34,0.83c0.22,0.22,0.51,0.34,0.82,0.35h16.64c0.31,0,0.6-0.13,0.82-0.35c0.22-0.22,0.34-0.52,0.34-0.83v-29.89
	h17.85v29.89c0,0.31,0.13,0.61,0.34,0.83c0.22,0.22,0.51,0.34,0.82,0.35h16.72c0.31,0,0.6-0.13,0.82-0.35
	c0.22-0.22,0.34-0.52,0.34-0.83v-74.48c0-0.31-0.13-0.61-0.34-0.83S119.54,258.3,119.23,258.29z"/>
<path class="st0" d="M159.59,274.74c-4.84-0.01-9.66,0.74-14.27,2.23c-4.39,1.43-8.63,3.29-12.65,5.57c-0.27,0.15-0.47,0.4-0.55,0.7
	c-0.08,0.3-0.05,0.62,0.1,0.89l5.91,10.95c0.15,0.27,0.39,0.48,0.69,0.57c0.3,0.09,0.62,0.06,0.89-0.08
	c2.83-1.45,5.77-2.71,8.77-3.75c2.52-0.89,5.16-1.35,7.83-1.36c3.58,0,6.25,0.64,7.98,1.93c1.32,0.97,2.26,2.38,2.64,3.98
	c-5.34,0.31-10.65,0.99-15.89,2.05c-4.78,1.06-8.77,2.46-11.86,4.17c-3.16,1.78-5.5,3.98-6.97,6.55s-2.18,5.61-2.18,8.98
	c-0.01,2.47,0.46,4.91,1.39,7.2c0.93,2.17,2.27,4.14,3.95,5.8c1.77,1.73,3.89,3.06,6.21,3.9c2.6,0.96,5.36,1.43,8.13,1.4
	c3.79-0.01,7.55-0.8,11.03-2.31c3.01-1.31,5.88-2.93,8.55-4.85l0.94,4.85c0.05,0.27,0.2,0.51,0.41,0.69
	c0.21,0.17,0.48,0.27,0.75,0.26h13.63c0.31,0,0.61-0.13,0.82-0.35c0.22-0.22,0.34-0.52,0.34-0.83v-32.43
	c0-8.98-2.41-15.76-7.19-20.19C174.24,276.93,167.72,274.74,159.59,274.74z M167.16,316.33c-1.74,1.3-3.6,2.42-5.57,3.33
	c-2.05,0.96-4.29,1.45-6.55,1.44c-2.18,0-3.92-0.38-5.12-1.14c-1.05-0.64-1.54-1.63-1.54-3.03c0-0.99,0.27-1.96,0.79-2.8
	c0.53-0.87,1.51-1.67,2.86-2.35c1.96-0.91,4.04-1.54,6.17-1.89c2.95-0.53,5.93-0.89,8.92-1.06v7.5H167.16z"/>
<path class="st0" d="M246.42,315.72c-0.19-0.27-0.47-0.46-0.79-0.53c-0.16-0.03-0.32-0.04-0.47,0c-0.16,0.03-0.3,0.1-0.43,0.19
	c-2.01,1.47-4.18,2.69-6.48,3.64c-2.45,1.02-5.07,1.53-7.72,1.52c-4.41,0-7.87-1.33-10.58-3.98c-2.71-2.65-4.03-6.25-4.03-10.91
	s1.36-8.22,4.18-10.91c2.82-2.69,6.48-4.02,10.99-4.02c3.88,0,7.87,1.44,11.78,4.24c0.12,0.09,0.26,0.16,0.41,0.19
	c0.15,0.04,0.3,0.04,0.45,0.02c0.15-0.02,0.29-0.08,0.42-0.16c0.13-0.08,0.24-0.19,0.33-0.31l7.72-10.38
	c0.18-0.24,0.26-0.53,0.24-0.83c-0.03-0.3-0.17-0.57-0.39-0.77c-2.78-2.43-5.95-4.37-9.38-5.72c-7.3-2.95-17.06-2.99-25.26-0.19
	c-3.93,1.29-7.59,3.32-10.77,5.99c-3.14,2.67-5.68,5.97-7.45,9.7c-1.85,3.83-2.79,8.26-2.79,13.14c0,4.89,0.83,9.28,2.48,13.11
	c1.57,3.72,3.94,7.04,6.93,9.74c3.01,2.66,6.52,4.69,10.32,5.99c4.11,1.41,8.42,2.12,12.76,2.08c4.2-0.04,8.36-0.73,12.35-2.05
	c4.29-1.4,8.26-3.63,11.71-6.55c0.22-0.19,0.37-0.45,0.41-0.73c0.04-0.29-0.02-0.58-0.18-0.82L246.42,315.72z"/>
<path class="st0" d="M299.99,300.69l20.71-22.58c0.16-0.17,0.27-0.38,0.31-0.61s0.01-0.47-0.08-0.68c-0.09-0.21-0.25-0.4-0.44-0.52
	c-0.19-0.13-0.42-0.19-0.65-0.19h-18.26c-0.16,0-0.32,0.04-0.47,0.1s-0.28,0.16-0.4,0.28l-19.05,20.53v-37.58
	c0-0.31-0.13-0.61-0.34-0.83c-0.22-0.22-0.51-0.34-0.82-0.35h-16.68c-0.31,0-0.6,0.13-0.82,0.35c-0.22,0.22-0.34,0.52-0.34,0.83
	v74.48c0,0.31,0.13,0.61,0.34,0.83c0.22,0.22,0.51,0.34,0.82,0.35h16.68c0.31,0,0.6-0.13,0.82-0.35c0.22-0.22,0.34-0.52,0.34-0.83
	v-13.56l7-6.86l13.86,21.06c0.11,0.16,0.25,0.3,0.42,0.39s0.36,0.14,0.56,0.14h18.03c0.22-0.01,0.43-0.07,0.61-0.18
	c0.19-0.11,0.34-0.27,0.44-0.46c0.1-0.19,0.15-0.4,0.13-0.62c-0.01-0.21-0.09-0.42-0.21-0.59L299.99,300.69z"/>
<path class="st0" d="M374.58,282.88c-2.41-2.64-5.39-4.7-8.7-6.02c-3.46-1.44-7.45-2.16-11.9-2.16c-3.89,0-7.74,0.72-11.37,2.12
	c-3.66,1.4-7.02,3.53-9.86,6.24c-2.84,2.72-5.12,5.98-6.7,9.59c-1.69,3.79-2.56,8.14-2.56,12.92c0,4.89,0.87,9.24,2.56,13.03
	c1.62,3.68,3.98,6.98,6.93,9.7c2.98,2.7,6.48,4.76,10.28,6.06c4.07,1.41,8.35,2.11,12.65,2.08c4.03-0.02,8.04-0.63,11.9-1.82
	c3.87-1.13,7.56-2.82,10.96-5c0.25-0.16,0.43-0.41,0.5-0.7c0.08-0.29,0.04-0.59-0.09-0.86l-5.42-10c-0.15-0.27-0.39-0.48-0.69-0.57
	c-0.3-0.09-0.62-0.06-0.89,0.08c-2.24,1.17-4.58,2.12-7,2.84c-2.28,0.62-4.64,0.92-7,0.91c-3.92,0-7.27-0.91-10.01-2.73
	c-2.37-1.55-3.95-3.94-4.86-7.24h36.45c0.27,0,0.54-0.1,0.75-0.27c0.21-0.17,0.36-0.41,0.42-0.68c0.15-0.72,0.3-1.7,0.49-3.03
	c0.16-1.43,0.23-2.88,0.22-4.32c0.03-3.8-0.57-7.57-1.77-11.18C378.71,288.57,376.92,285.5,374.58,282.88z M343.07,298.6
	c0.72-2.77,1.99-4.89,3.84-6.25c2.14-1.62,4.74-2.49,7.42-2.46c3.46,0,5.98,0.91,7.49,2.65c1.38,1.71,2.18,3.82,2.3,6.02h-21.04
	V298.6z"/>
<path class="st0" d="M445.25,277.12c-3.55-1.72-7.47-2.54-11.41-2.39c-4.66-0.02-9.24,1.2-13.29,3.52c-3.39,1.93-6.4,4.77-9,8.41
	l-1.05-9.51c-0.03-0.29-0.17-0.56-0.38-0.75c-0.21-0.2-0.49-0.3-0.79-0.31H395.7c-0.31,0-0.6,0.13-0.82,0.35s-0.34,0.52-0.34,0.83
	v56.63c0,0.31,0.13,0.61,0.34,0.83c0.22,0.22,0.51,0.34,0.82,0.35h16.68c0.31,0,0.61-0.13,0.82-0.35c0.22-0.22,0.34-0.52,0.34-0.83
	V304.7c2.3-4.74,5.01-8.11,8.1-10c3.16-1.93,6.4-2.92,9.68-2.92c1.69-0.03,3.38,0.09,5.05,0.38c1.55,0.31,3.08,0.7,4.59,1.17
	c0.16,0.05,0.32,0.06,0.48,0.04c0.16-0.02,0.32-0.07,0.46-0.15c0.14-0.08,0.27-0.19,0.36-0.32c0.1-0.13,0.17-0.28,0.2-0.44
	l3.39-14.05c0.09-0.25,0.07-0.53-0.04-0.77C445.7,277.4,445.5,277.21,445.25,277.12z"/>
<path class="st0" d="M498.22,304.66c3.56-1.8,6.61-4.49,8.85-7.8c2.56-3.71,3.84-8.49,3.84-14.21c0-4.58-0.79-8.49-2.41-11.63
	c-1.52-3.05-3.79-5.65-6.59-7.58c-2.88-1.93-6.1-3.3-9.49-4.02c-3.72-0.79-7.52-1.19-11.33-1.17h-26.21c-0.31,0-0.6,0.13-0.82,0.35
	s-0.34,0.52-0.34,0.83v74.48c0,0.31,0.13,0.61,0.34,0.83c0.22,0.22,0.51,0.34,0.82,0.35h16.68c0.31,0,0.6-0.13,0.82-0.35
	c0.22-0.22,0.34-0.52,0.34-0.83v-25.65h6.85l13.86,26.21c0.1,0.19,0.25,0.36,0.44,0.47c0.19,0.11,0.4,0.17,0.62,0.17h18.71
	c0.21,0,0.41-0.06,0.59-0.17c0.18-0.11,0.33-0.26,0.43-0.44c0.11-0.18,0.17-0.38,0.17-0.59c0-0.21-0.06-0.41-0.17-0.59
	L498.22,304.66z M479.78,292.54h-7.01v-18.52h7.01c4.22,0,7.42,0.68,9.45,1.97c1.92,1.21,2.86,3.41,2.86,6.63
	C492.09,289.4,488.17,292.54,479.78,292.54z"/>
<path class="st0" d="M547.25,274.74c-4.84-0.01-9.66,0.74-14.27,2.23c-4.39,1.43-8.63,3.29-12.65,5.57c-0.27,0.15-0.47,0.4-0.55,0.7
	c-0.08,0.3-0.05,0.62,0.1,0.89l5.91,10.95c0.15,0.27,0.4,0.48,0.69,0.57c0.29,0.09,0.62,0.06,0.89-0.08
	c2.83-1.45,5.77-2.71,8.77-3.75c2.52-0.89,5.17-1.35,7.83-1.36c3.57,0,6.25,0.64,7.98,1.93c1.32,0.97,2.26,2.38,2.64,3.98
	c-5.33,0.31-10.64,0.99-15.89,2.05c-4.78,1.06-8.77,2.46-11.86,4.17c-3.16,1.78-5.5,3.98-6.96,6.55c-1.47,2.58-2.18,5.61-2.18,8.98
	c-0.01,2.47,0.46,4.91,1.39,7.2c0.93,2.17,2.27,4.14,3.95,5.8c1.77,1.73,3.89,3.06,6.21,3.9c2.61,0.96,5.36,1.43,8.13,1.4
	c3.79-0.01,7.55-0.8,11.03-2.31c3.02-1.31,5.88-2.93,8.55-4.85l0.94,4.85c0.05,0.27,0.2,0.51,0.41,0.69
	c0.21,0.17,0.48,0.27,0.76,0.26h13.63c0.31,0,0.6-0.13,0.82-0.35c0.22-0.22,0.34-0.52,0.34-0.83v-32.43c0-8.98-2.4-15.76-7.19-20.19
	C561.94,276.93,555.42,274.74,547.25,274.74z M554.82,316.33c-1.74,1.3-3.6,2.42-5.57,3.33c-2.05,0.96-4.29,1.45-6.55,1.44
	c-2.18,0-3.92-0.38-5.12-1.14c-1.05-0.64-1.54-1.63-1.54-3.03c0-0.99,0.27-1.96,0.79-2.8c0.53-0.87,1.51-1.67,2.86-2.35
	c1.97-0.91,4.04-1.54,6.17-1.89c2.95-0.53,5.93-0.89,8.92-1.06v7.5H554.82z"/>
<path class="st0" d="M622.03,274.74c-4.41,0-8.32,0.95-11.63,2.77c-2.65,1.48-5.12,3.26-7.38,5.3l-0.94-5.68
	c-0.05-0.27-0.19-0.52-0.4-0.7c-0.22-0.18-0.48-0.28-0.76-0.28h-13.63c-0.31,0-0.6,0.13-0.82,0.35c-0.22,0.22-0.34,0.52-0.35,0.83
	v56.63c0,0.31,0.13,0.61,0.35,0.83c0.22,0.22,0.51,0.34,0.82,0.35h16.68c0.31,0,0.6-0.13,0.82-0.35c0.22-0.22,0.34-0.52,0.35-0.83
	v-37.31c1.48-1.51,3.13-2.83,4.93-3.94c1.65-0.91,3.51-1.37,5.38-1.33c2.67,0,4.52,0.72,5.5,2.12c1.05,1.55,1.62,4.13,1.62,7.65
	v32.77c0,0.31,0.13,0.61,0.35,0.83c0.22,0.22,0.51,0.34,0.82,0.35h16.68c0.31,0,0.6-0.13,0.82-0.35c0.22-0.22,0.34-0.52,0.34-0.83
	v-34.93c0-7.39-1.58-13.3-4.67-17.61C633.82,276.97,628.77,274.74,622.03,274.74z"/>
<path class="st0" d="M713.82,333.26l-22.51-32.58l20.71-22.58c0.16-0.17,0.26-0.38,0.3-0.61c0.04-0.23,0.01-0.47-0.08-0.68
	c-0.1-0.21-0.25-0.4-0.44-0.52c-0.19-0.13-0.42-0.19-0.65-0.19h-18.26c-0.16,0-0.32,0.04-0.47,0.1c-0.15,0.07-0.28,0.16-0.39,0.28
	l-19.05,20.53v-37.58c0-0.31-0.13-0.61-0.35-0.83c-0.22-0.22-0.51-0.34-0.82-0.35h-16.68c-0.31,0-0.6,0.13-0.82,0.35
	c-0.22,0.22-0.34,0.52-0.34,0.83v74.48c0,0.31,0.12,0.61,0.34,0.83c0.22,0.22,0.51,0.34,0.82,0.35h16.68c0.31,0,0.61-0.13,0.82-0.35
	c0.22-0.22,0.35-0.52,0.35-0.83v-13.56l7-6.86l13.82,21.1c0.11,0.16,0.26,0.3,0.42,0.39c0.17,0.09,0.36,0.14,0.55,0.14h18.04
	c0.22-0.01,0.43-0.07,0.61-0.18c0.19-0.11,0.34-0.27,0.44-0.46c0.11-0.19,0.16-0.4,0.15-0.61
	C714,333.65,713.94,333.44,713.82,333.26z"/>
<path class="st1" d="M776.37,335.12c0.31,0,0.61-0.13,0.82-0.35c0.22-0.22,0.35-0.52,0.35-0.83v-74.48c0-0.31-0.13-0.61-0.35-0.83
	c-0.22-0.22-0.51-0.34-0.82-0.35h-53.58c-0.31,0-0.61,0.13-0.82,0.35s-0.34,0.52-0.35,0.83v74.48c0,0.31,0.13,0.61,0.35,0.83
	c0.22,0.22,0.51,0.34,0.82,0.35H776.37z"/>
</svg>
